# xmcd
#
# Track frame offsets: 
#        150
#        27500
#        45507
#        72690
#        100767
#        122657
#        180027
#        211962
#        230275
#        256309
#        267955
#
# Disc length: 4136 seconds
#
# Revision: 0
# Processed by: cddbd v1.4PL0 Copyright (c) Steve Scherf et al.
# Submitted via: ExactAudioCopy v0.90a11
#
DISCID=9110260b
DTITLE=Blues Traveler - Jones For The Blues (Unofficial Live Recording
DTITLE=)
DYEAR=1900
DGENRE=
TTITLE0=But Anyway
TTITLE1=Out Of My Hands
TTITLE2=Gina
TTITLE3=Stand
TTITLE4=Love and Greed
TTITLE5=Crystal Flame
TTITLE6=Mullin' It Over
TTITLE7=Crash Burn
TTITLE8=Come Together
TTITLE9=Good Bad Ugly
TTITLE10=Wait and See
EXTD=Unofficial Live Recording\nRecord Live At Jones Beach Amph. Long 
EXTD=Island, NY 07/31/94
EXTT0=
EXTT1=
EXTT2=
EXTT3=
EXTT4=
EXTT5=
EXTT6=
EXTT7=
EXTT8=
EXTT9=
EXTT10=
PLAYORDER=
